<svg width="32" height="33" viewBox="0 0 32 33" fill="none" xmlns="http://www.w3.org/2000/svg">
<g id="Facebook" clip-path="url(#clip0_667_129)">
<path id="Vector" d="M32 16.5C32 7.66344 24.8366 0.5 16 0.5C7.16344 0.5 0 7.66344 0 16.5C0 24.4859 5.85094 31.1053 13.5 32.3056V21.125H9.4375V16.5H13.5V12.975C13.5 8.965 15.8888 6.75 19.5434 6.75C21.2934 6.75 23.125 7.0625 23.125 7.0625V11H21.1075C19.12 11 18.5 12.2334 18.5 13.5V16.5H22.9375L22.2281 21.125H18.5V32.3056C26.1491 31.1053 32 24.4859 32 16.5Z" fill="white"/>
</g>
<defs>
<clipPath id="clip0_667_129">
<rect width="32" height="32" fill="white" transform="translate(0 0.5)"/>
</clipPath>
</defs>
</svg>
