<svg width="32" height="33" viewBox="0 0 32 33" fill="none" xmlns="http://www.w3.org/2000/svg">
<g id="Icon">
<g id="Icon_2">
<path fill-rule="evenodd" clip-rule="evenodd" d="M26.3334 16.5C26.3334 15.9477 25.8856 15.5 25.3334 15.5H6.66669C6.1144 15.5 5.66669 15.9477 5.66669 16.5C5.66669 17.0523 6.1144 17.5 6.66669 17.5H25.3334C25.8856 17.5 26.3334 17.0523 26.3334 16.5Z" fill="#242424"/>
<path fill-rule="evenodd" clip-rule="evenodd" d="M26.3334 9.83331C26.3334 9.28103 25.8856 8.83331 25.3334 8.83331H6.66669C6.1144 8.83331 5.66669 9.28103 5.66669 9.83331C5.66669 10.3856 6.1144 10.8333 6.66669 10.8333H25.3334C25.8856 10.8333 26.3334 10.3856 26.3334 9.83331Z" fill="#242424"/>
<path fill-rule="evenodd" clip-rule="evenodd" d="M26.3334 23.1666C26.3334 22.6144 25.8856 22.1666 25.3334 22.1666H6.66669C6.1144 22.1666 5.66669 22.6144 5.66669 23.1666C5.66669 23.7189 6.1144 24.1666 6.66669 24.1666H25.3334C25.8856 24.1666 26.3334 23.7189 26.3334 23.1666Z" fill="#242424"/>
</g>
</g>
</svg>
